<svg xmlns="http://www.w3.org/2000/svg" viewBox="0 0 32 32"><defs><style>.cls-1{fill:#231f20;}</style></defs><g id="document"><path class="cls-1" d="M27.59,23.19,27,22.77V18a1,1,0,0,0-2,0v3.32L12,11.93V8H25v6a1,1,0,0,0,2,0V8a2,2,0,0,0-2-2H24V4a2,2,0,0,0-2-2H8A2,2,0,0,0,6,4v6H5a1,1,0,0,0-1,1V29a1,1,0,0,0,1,1H8a1,1,0,0,0,0-2H6V12H8.68L26,24.51V28H12a1,1,0,0,0,0,2H27a1,1,0,0,0,1-1V24A1,1,0,0,0,27.59,23.19ZM9,10H8V4H22V6H12a2,2,0,0,0-2,2v2.5l-.41-.3A1,1,0,0,0,9,10Z"/><path class="cls-1" d="M18,10a1,1,0,0,0,0,2h4a1,1,0,0,0,0-2Z"/><path class="cls-1" d="M13,26a1,1,0,0,0-1-1H8a1,1,0,0,0,0,2h4A1,1,0,0,0,13,26Z"/></g></svg>