<?xml version="1.0" encoding="UTF-8" standalone="no"?>
<!-- Created with Inkscape (http://www.inkscape.org/) -->

<svg
   width="294.75854"
   height="54.715649"
   viewBox="0 0 77.988195 14.476849"
   version="1.1"
   id="svg5"
   inkscape:version="1.1.2 (0a00cf5339, 2022-02-04)"
   sodipodi:docname="logo.svg"
   xmlns:inkscape="http://www.inkscape.org/namespaces/inkscape"
   xmlns:sodipodi="http://sodipodi.sourceforge.net/DTD/sodipodi-0.dtd"
   xmlns="http://www.w3.org/2000/svg"
   xmlns:svg="http://www.w3.org/2000/svg">
  <sodipodi:namedview
     id="namedview7"
     pagecolor="#ffffff"
     bordercolor="#666666"
     borderopacity="1.0"
     inkscape:pageshadow="2"
     inkscape:pageopacity="0.0"
     inkscape:pagecheckerboard="true"
     inkscape:document-units="px"
     showgrid="false"
     showborder="true"
     units="px"
     inkscape:zoom="1"
     inkscape:cx="-102"
     inkscape:cy="83.5"
     inkscape:window-width="1366"
     inkscape:window-height="699"
     inkscape:window-x="0"
     inkscape:window-y="0"
     inkscape:window-maximized="1"
     inkscape:current-layer="layer1"
     fit-margin-top="0"
     fit-margin-left="0"
     fit-margin-right="0"
     fit-margin-bottom="0" />
  <defs
     id="defs2" />
  <g
     inkscape:label="Layer 1"
     inkscape:groupmode="layer"
     id="layer1"
     transform="translate(209.76498,89.383321)">
    <g
       id="g89">
      <g
         id="g1157"
         transform="matrix(-0.31893743,-0.31893743,0.31893743,-0.31893743,-262.00714,-163.75052)">
        <path
           style="color:#000000;fill:#ad7fa8;-inkscape-stroke:none"
           d="m -221.18164,-50.742187 c -8.85173,0 -16.05664,7.204912 -16.05664,16.05664 0,8.851728 7.20491,16.056641 16.05664,16.056641 8.85173,0 16.05664,-7.204913 16.05664,-16.056641 0,-8.851728 -7.20491,-16.056641 -16.05664,-16.05664 z m 0,2.646484 c 7.42181,0 13.41016,5.988341 13.41016,13.410156 0,7.421815 -5.98835,13.410156 -13.41016,13.410156 -7.42182,0 -13.41016,-5.988341 -13.41016,-13.410156 0,-7.421815 5.98834,-13.410156 13.41016,-13.410156 z"
           id="circle990" />
        <path
           style="color:#000000;fill:#8ae234;-inkscape-stroke:none"
           d="m -221.18164,-50.742187 c -5.5233,0 -10.0293,4.506001 -10.0293,10.029297 0,5.523295 4.506,10.029296 10.0293,10.029296 5.5233,0 10.0293,-4.506001 10.0293,-10.029296 0,-5.523296 -4.506,-10.029297 -10.0293,-10.029297 z m 0,2.646484 c 4.09338,0 7.38281,3.289428 7.38281,7.382813 0,4.093384 -3.28943,7.384765 -7.38281,7.384765 -4.09339,0 -7.38281,-3.291381 -7.38281,-7.384765 0,-4.093385 3.28942,-7.382813 7.38281,-7.382813 z"
           id="circle992" />
      </g>
      <g
         aria-label="befluent"
         id="text2003"
         style="font-size:13.8044px;line-height:1.15;font-family:Parquetipo;-inkscape-font-specification:Parquetipo;fill:#ffffff;stroke-width:0.345111">
        <path
           d="m -187.18758,-76.830202 c 2.11208,0 3.86524,-0.59359 3.86524,-2.774685 v -1.628919 c 0,-1.711746 -1.02153,-2.774685 -2.89893,-2.774685 h -1.82218 l -0.70402,0.731634 h -0.16566 v -4.04469 l -1.80837,0.220871 v 9.897755 c 1.03533,0.207066 2.37435,0.372719 3.53392,0.372719 z m -1.55989,-1.739355 v -2.705662 c 0,-0.607394 0.3313,-0.993917 0.88348,-0.993917 h 1.5875 c 0.64881,0 0.98012,0.386523 0.98012,0.993917 v 1.711745 c 0,0.607394 -0.33131,0.993917 -0.98012,0.993917 z"
           id="path6010"
           style="fill:#ffffff" />
        <path
           d="m -178.44942,-76.830202 c 1.18718,0 2.36056,-0.05522 3.46491,-0.414132 l -0.3037,-1.380441 -0.46935,-0.151848 c -0.56598,0.179457 -1.43565,0.331306 -2.23631,0.331306 -1.00772,0 -1.8912,-0.24848 -1.8912,-1.049135 v -0.110435 h 2.62283 c 1.97403,0 2.66425,-0.69022 2.66425,-1.518484 v -0.828264 c 0,-1.518484 -1.31142,-2.056856 -3.07838,-2.056856 h -1.00772 c -2.15349,0 -3.17501,1.062939 -3.17501,2.774685 v 1.490875 c 0,2.153487 1.50468,2.912729 3.40968,2.912729 z m -1.43565,-4.072299 v -0.276088 c 0,-0.469349 0.3313,-1.13196 0.86967,-1.13196 h 1.5599 c 0.49696,0 0.9249,0.124239 0.9249,0.455545 v 0.358914 c 0,0.552176 -0.42794,0.593589 -0.9249,0.593589 z"
           id="path6012"
           style="fill:#ffffff" />
        <path
           d="m -172.33407,-76.968246 h 1.97403 v -5.30089 h 2.36055 v -1.601311 h -2.36055 v -0.855873 c 0,-0.731633 0.48315,-1.03533 1.15957,-1.03533 0.55218,0 0.77305,0.01381 1.36664,0.138044 l 0.41413,-1.60131 c -0.67642,-0.179457 -1.13196,-0.234675 -1.83599,-0.234675 -1.73935,0 -3.07838,0.911091 -3.07838,2.912729 v 0.676415 h -1.2424 v 1.270005 l 0.31751,0.331306 h 0.92489 z"
           id="path6014"
           style="fill:#ffffff" />
        <path
           d="m -166.71568,-76.968246 h 1.97403 v -10.353301 l -1.97403,0.276088 z"
           id="path6016"
           style="fill:#ffffff" />
        <path
           d="m -155.98968,-76.968246 v -6.902201 h -1.97403 v 4.168929 l -0.0138,1.131961 h -2.05686 c -0.6488,0 -0.96631,-0.524567 -0.96631,-1.131961 v -4.168929 h -1.97402 v 4.26556 c 0,1.711746 0.86967,2.774685 2.76088,2.774685 0.75924,0 1.71174,-0.138044 1.71174,-0.138044 l 0.52457,-0.607394 h 0.17946 v 0.607394 z"
           id="path6018"
           style="fill:#ffffff" />
        <path
           d="m -150.89586,-76.830202 c 1.18718,0 2.36056,-0.05522 3.46491,-0.414132 l -0.3037,-1.380441 -0.46935,-0.151848 c -0.56598,0.179457 -1.43565,0.331306 -2.23631,0.331306 -1.00772,0 -1.8912,-0.24848 -1.8912,-1.049135 v -0.110435 h 2.62283 c 1.97403,0 2.66425,-0.69022 2.66425,-1.518484 v -0.828264 c 0,-1.518484 -1.31142,-2.056856 -3.07838,-2.056856 h -1.00772 c -2.15349,0 -3.17501,1.062939 -3.17501,2.774685 v 1.490875 c 0,2.153487 1.50468,2.912729 3.40968,2.912729 z m -1.43565,-4.072299 v -0.276088 c 0,-0.469349 0.3313,-1.13196 0.86967,-1.13196 h 1.5599 c 0.49696,0 0.9249,0.124239 0.9249,0.455545 v 0.358914 c 0,0.552176 -0.42794,0.593589 -0.9249,0.593589 z"
           id="path6020"
           style="fill:#ffffff" />
        <path
           d="m -140.79104,-84.008491 c -0.71783,0 -1.46326,0.05522 -2.12588,0.138044 l -0.52456,0.607394 h -0.17946 v -0.607394 h -1.80838 v 6.902201 h 1.97403 v -4.030885 c 0,-0.745438 0.19326,-1.270005 0.84207,-1.270005 h 1.64273 c 0.6488,0 0.9663,0.524567 0.9663,1.131961 v 4.168929 h 1.97403 v -4.26556 c 0,-1.711746 -0.86967,-2.774685 -2.76088,-2.774685 z"
           id="path6022"
           style="fill:#ffffff" />
        <path
           d="m -135.76625,-79.604887 c 0,2.277726 1.11815,2.774685 2.55381,2.774685 0.53837,0 0.99392,-0.05522 1.43566,-0.179458 l -0.15185,-1.615115 c -0.37272,0.05522 -0.67641,0.08283 -0.92489,0.08283 -0.67642,0 -0.9387,-0.248479 -0.9387,-1.145765 v -2.581423 h 1.86359 l 0.069,-1.601311 h -1.93261 v -1.794572 l -1.97403,0.276088 v 1.518484 h -1.10435 v 1.214788 l 0.34511,0.386523 h 0.75924 z"
           id="path6024"
           style="fill:#ffffff" />
      </g>
    </g>
  </g>
</svg>
