<?xml version="1.0" encoding="UTF-8" standalone="no"?>
<!-- Created with Inkscape (http://www.inkscape.org/) -->

<svg
   width="491.31445"
   height="173.37091"
   viewBox="0 0 129.99361 45.871055"
   version="1.1"
   id="svg5"
   inkscape:version="1.1.2 (0a00cf5339, 2022-02-04)"
   sodipodi:docname="exheader-bg.svg"
   xmlns:inkscape="http://www.inkscape.org/namespaces/inkscape"
   xmlns:sodipodi="http://sodipodi.sourceforge.net/DTD/sodipodi-0.dtd"
   xmlns="http://www.w3.org/2000/svg"
   xmlns:svg="http://www.w3.org/2000/svg">
  <sodipodi:namedview
     id="namedview7"
     pagecolor="#ffffff"
     bordercolor="#666666"
     borderopacity="1.0"
     inkscape:pageshadow="2"
     inkscape:pageopacity="0.0"
     inkscape:pagecheckerboard="0"
     inkscape:document-units="px"
     showgrid="false"
     showborder="true"
     units="px"
     inkscape:zoom="1"
     inkscape:cx="281"
     inkscape:cy="53.5"
     inkscape:window-width="1366"
     inkscape:window-height="699"
     inkscape:window-x="0"
     inkscape:window-y="0"
     inkscape:window-maximized="1"
     inkscape:current-layer="layer1"
     fit-margin-top="0"
     fit-margin-left="0"
     fit-margin-right="0"
     fit-margin-bottom="0" />
  <defs
     id="defs2" />
  <g
     inkscape:label="Layer 1"
     inkscape:groupmode="layer"
     id="layer1"
     transform="translate(-566.48495,-159.16687)">
    <g
       id="g829"
       inkscape:export-filename="/home/peekaboo/Desktop/GITHUB/befluentinswahili.github.io/assets/img/g829.png"
       inkscape:export-xdpi="281.36768"
       inkscape:export-ydpi="281.36768">
      <path
         id="rect1423"
         style="fill:#eeeeec;stroke-width:0.142899;stroke-miterlimit:29.2;fill-opacity:0.25049192"
         d="m 566.48495,159.16687 h 129.99361 v 45.87099 H 566.48495 Z" />
      <g
         id="g1392"
         transform="matrix(0.61188261,0,0,0.61188261,549.50275,105.14618)">
        <path
           id="rect1000"
           style="fill:#ad7fa8;stroke-width:0.695224;stroke-miterlimit:29.2"
           d="m 218.45769,107.98209 c -9.49916,0 -18.9979,3.61486 -26.22734,10.8443 -12.01326,12.01326 -14.04407,30.29332 -6.09472,44.42674 h 7.24659 c -8.83844,-12.1254 -7.7821,-29.15105 3.17087,-40.10401 12.07029,-12.07029 31.51489,-12.12103 43.64953,-0.15606 v -7.98918 c -6.46052,-4.67962 -14.10238,-7.02179 -21.74493,-7.02179 z" />
        <path
           id="circle992"
           style="color:#000000;fill:#8ae234;stroke-width:2.31005;-inkscape-stroke:none"
           d="m 208.6123,131.75066 c -5.93568,0 -11.87093,2.25549 -16.38195,6.76651 -6.66674,6.66676 -8.40574,16.44456 -5.21983,24.73596 h 6.72207 c -3.67372,-6.50298 -2.73389,-14.85884 2.8205,-20.41322 6.68634,-6.68635 17.4357,-6.68912 24.12204,-0.003 5.55439,5.55438 6.49175,13.91208 2.8174,20.41581 h 6.72207 c 3.1859,-8.29139 1.44691,-18.06921 -5.21984,-24.73596 -4.51102,-4.51102 -10.44678,-6.76651 -16.38246,-6.76651 z" />
      </g>
    </g>
  </g>
</svg>
