<?xml version="1.0" encoding="UTF-8" standalone="no"?>
<!-- Created with Inkscape (http://www.inkscape.org/) -->

<svg
   width="316.52252"
   height="54.008465"
   viewBox="0 0 83.74658 14.28974"
   version="1.1"
   id="svg5"
   inkscape:version="1.1.2 (0a00cf5339, 2022-02-04)"
   sodipodi:docname="logo.svg"
   xmlns:inkscape="http://www.inkscape.org/namespaces/inkscape"
   xmlns:sodipodi="http://sodipodi.sourceforge.net/DTD/sodipodi-0.dtd"
   xmlns="http://www.w3.org/2000/svg"
   xmlns:svg="http://www.w3.org/2000/svg">
  <sodipodi:namedview
     id="namedview7"
     pagecolor="#ffffff"
     bordercolor="#666666"
     borderopacity="1.0"
     inkscape:pageshadow="2"
     inkscape:pageopacity="0.0"
     inkscape:pagecheckerboard="false"
     inkscape:document-units="px"
     showgrid="false"
     showborder="true"
     units="px"
     inkscape:zoom="1"
     inkscape:cx="222"
     inkscape:cy="88.5"
     inkscape:window-width="1366"
     inkscape:window-height="699"
     inkscape:window-x="0"
     inkscape:window-y="0"
     inkscape:window-maximized="1"
     inkscape:current-layer="layer1"
     fit-margin-top="0"
     fit-margin-left="0"
     fit-margin-right="0"
     fit-margin-bottom="0"
     showguides="false" />
  <defs
     id="defs2" />
  <g
     inkscape:label="Layer 1"
     inkscape:groupmode="layer"
     id="layer1"
     transform="translate(263.43993,156.71009)">
    <g
       id="g130281">
      <g
         id="g1157"
         transform="matrix(-0.31481526,-0.31481526,0.31481526,-0.31481526,-315.00688,-230.11612)">
        <path
           style="color:#000000;fill:#ad7fa8;-inkscape-stroke:none"
           d="m -221.18164,-50.742187 c -8.85173,0 -16.05664,7.204912 -16.05664,16.05664 0,8.851728 7.20491,16.056641 16.05664,16.056641 8.85173,0 16.05664,-7.204913 16.05664,-16.056641 0,-8.851728 -7.20491,-16.056641 -16.05664,-16.05664 z m 0,2.646484 c 7.42181,0 13.41016,5.988341 13.41016,13.410156 0,7.421815 -5.98835,13.410156 -13.41016,13.410156 -7.42182,0 -13.41016,-5.988341 -13.41016,-13.410156 0,-7.421815 5.98834,-13.410156 13.41016,-13.410156 z"
           id="circle990" />
        <path
           style="color:#000000;fill:#8ae234;-inkscape-stroke:none"
           d="m -221.18164,-50.742187 c -5.5233,0 -10.0293,4.506001 -10.0293,10.029297 0,5.523295 4.506,10.029296 10.0293,10.029296 5.5233,0 10.0293,-4.506001 10.0293,-10.029296 0,-5.523296 -4.506,-10.029297 -10.0293,-10.029297 z m 0,2.646484 c 4.09338,0 7.38281,3.289428 7.38281,7.382813 0,4.093384 -3.28943,7.384765 -7.38281,7.384765 -4.09339,0 -7.38281,-3.291381 -7.38281,-7.384765 0,-4.093385 3.28942,-7.382813 7.38281,-7.382813 z"
           id="circle992" />
      </g>
      <g
         aria-label="befluent"
         id="text4860"
         style="font-weight:bold;font-size:17.4183px;line-height:1.25;font-family:'Santello Regular';-inkscape-font-specification:'Santello Regular,  Bold';letter-spacing:0px;fill:#808080;stroke-width:0.181442"
         transform="translate(0,2.492217e-5)">
        <path
           d="m -244.19322,-156.09709 h 1.6199 v 5.45193 q 0.55739,-0.69674 1.32379,-1.06252 0.78383,-0.3832 1.707,-0.3832 0.87091,0 1.60248,0.34836 0.74899,0.33095 1.27154,0.94059 0.53996,0.59222 0.83607,1.4283 0.31353,0.83608 0.31353,1.8115 0,0.97543 -0.31353,1.81151 -0.29611,0.83608 -0.83607,1.44572 -0.53997,0.59222 -1.28896,0.92317 -0.74898,0.34836 -1.63732,0.34836 -0.90575,0 -1.67215,-0.34836 -0.76641,-0.34837 -1.30638,-1.02768 l -0.26127,1.20186 h -1.35863 z m 2.38631,10.69483 q 0.36578,0.40062 0.85349,0.62706 0.48772,0.24386 1.06252,0.24386 0.59222,0 1.07994,-0.24386 0.50513,-0.22644 0.85349,-0.62706 0.36579,-0.40062 0.55739,-0.958 0.20902,-0.55739 0.20902,-1.20187 0,-0.66189 -0.20902,-1.20186 -0.1916,-0.55738 -0.55739,-0.97542 -0.34836,-0.40062 -0.85349,-0.62706 -0.48772,-0.22644 -1.07994,-0.22644 -0.5748,0 -1.06252,0.22644 -0.48771,0.22644 -0.85349,0.62706 -0.34837,0.41804 -0.55739,0.97542 -0.20902,0.53997 -0.20902,1.20186 0,0.64448 0.20902,1.20187 0.20902,0.55738 0.55739,0.958 z"
           id="path130234" />
        <path
           d="m -229.73605,-152.09088 q 0.94059,0 1.74183,0.34836 0.81866,0.33095 1.39346,0.94059 0.59222,0.59222 0.90575,1.4283 0.33095,0.81866 0.33095,1.8115 v 0.62706 h -5.45193 v -1.39346 h 3.74494 q -0.20902,-1.02768 -0.90575,-1.65474 -0.71415,-0.62706 -1.75925,-0.62706 -0.62706,0 -1.13219,0.22644 -0.48771,0.22644 -0.83608,0.62706 -0.36578,0.40062 -0.55739,0.94059 -0.1916,0.53996 -0.1916,1.18444 0,0.67932 0.22644,1.2367 0.20902,0.5748 0.60964,0.99284 0.40062,0.40062 0.94059,0.64448 0.53997,0.22644 1.18444,0.22644 0.53997,0 0.95801,-0.13935 0.41804,-0.15676 0.71415,-0.34836 0.31353,-0.1916 0.50513,-0.40062 0.20902,-0.20902 0.31353,-0.33095 l 1.21928,0.88833 q -0.43546,0.53997 -0.87091,0.88833 -0.43546,0.34837 -0.88834,0.55739 -0.45287,0.20902 -0.94058,0.29611 -0.50514,0.0871 -1.07994,0.0871 -0.97542,0 -1.8115,-0.33094 -0.83608,-0.34837 -1.44572,-0.95801 -0.60964,-0.60964 -0.95801,-1.44572 -0.34836,-0.83608 -0.34836,-1.82892 0,-0.97543 0.33094,-1.79409 0.33095,-0.81866 0.90576,-1.4283 0.59222,-0.59222 1.39346,-0.94059 0.80124,-0.33094 1.75925,-0.33094 z"
           id="path130236" />
        <path
           d="m -220.03407,-156.09709 q 0.20902,0 0.34836,0.0174 0.15677,0.0174 0.20902,0.0348 v 1.4283 h -0.34836 q -0.8535,0 -1.16703,0.50513 -0.29611,0.50513 -0.29611,1.32379 v 0.87092 h 1.8115 v 1.46314 h -1.8115 v 7.24601 h -1.63732 v -7.24601 h -1.35863 v -1.46314 h 1.35863 v -0.87092 q 0,-0.83607 0.20902,-1.44571 0.22644,-0.62706 0.62706,-1.0451 0.3832,-0.40062 0.92317,-0.60964 0.52255,-0.20902 1.13219,-0.20902 z"
           id="path130238" />
        <path
           d="m -215.83629,-156.09709 v 12.88954 h -1.63732 v -12.88954 z"
           id="path130240" />
        <path
           d="m -211.9346,-151.9167 v 5.33 q 0,2.05536 1.82892,2.05536 0.15676,0 0.31353,0 0.43546,-0.0348 0.81866,-0.26128 0.3832,-0.20902 0.66189,-0.50513 0.2787,-0.29611 0.43546,-0.64447 0.15677,-0.34837 0.15677,-0.64448 v -5.33 h 1.63732 v 8.70915 h -1.35863 l -0.27869,-1.2367 q -0.43546,0.55739 -1.11478,0.99284 -0.67931,0.41804 -1.65473,0.41804 -0.6619,0 -1.21929,-0.22643 -0.55738,-0.22644 -0.97542,-0.67932 -0.40062,-0.43546 -0.64448,-1.11477 -0.22644,-0.6619 -0.22644,-1.53281 v -5.33 z"
           id="path130242" />
        <path
           d="m -199.86373,-152.09088 q 0.94059,0 1.74183,0.34836 0.81866,0.33095 1.39346,0.94059 0.59223,0.59222 0.90575,1.4283 0.33095,0.81866 0.33095,1.8115 v 0.62706 h -5.45193 v -1.39346 h 3.74494 q -0.20902,-1.02768 -0.90575,-1.65474 -0.71415,-0.62706 -1.75925,-0.62706 -0.62706,0 -1.13219,0.22644 -0.48771,0.22644 -0.83608,0.62706 -0.36578,0.40062 -0.55738,0.94059 -0.19161,0.53996 -0.19161,1.18444 0,0.67932 0.22644,1.2367 0.20902,0.5748 0.60964,0.99284 0.40062,0.40062 0.94059,0.64448 0.53997,0.22644 1.18445,0.22644 0.53996,0 0.958,-0.13935 0.41804,-0.15676 0.71415,-0.34836 0.31353,-0.1916 0.50513,-0.40062 0.20902,-0.20902 0.31353,-0.33095 l 1.21928,0.88833 q -0.43545,0.53997 -0.87091,0.88833 -0.43546,0.34837 -0.88834,0.55739 -0.45287,0.20902 -0.94058,0.29611 -0.50513,0.0871 -1.07994,0.0871 -0.97542,0 -1.8115,-0.33094 -0.83608,-0.34837 -1.44572,-0.95801 -0.60964,-0.60964 -0.95801,-1.44572 -0.34836,-0.83608 -0.34836,-1.82892 0,-0.97543 0.33094,-1.79409 0.33095,-0.81866 0.90576,-1.4283 0.59222,-0.59222 1.39346,-0.94059 0.80124,-0.33094 1.75925,-0.33094 z"
           id="path130244" />
        <path
           d="m -192.26936,-151.9167 0.26128,1.2367 q 0.43546,-0.55739 1.11477,-0.97543 0.67931,-0.43545 1.67216,-0.43545 0.64447,0 1.20186,0.22643 0.5748,0.22644 0.97542,0.67932 0.41804,0.43546 0.64448,1.09735 0.24386,0.67931 0.24386,1.55023 v 5.33 h -1.63732 v -5.33 q 0,-2.05536 -1.82892,-2.05536 -0.13935,0 -0.29612,0 -0.45287,0.0348 -0.83607,0.26127 -0.38321,0.20902 -0.6619,0.50514 -0.27869,0.29611 -0.43546,0.64447 -0.15676,0.34837 -0.15676,0.64448 v 5.33 h -1.63732 v -8.70915 z"
           id="path130246" />
        <path
           d="m -181.50486,-154.61654 v 2.69984 h 1.8115 v 1.46314 h -1.8115 v 4.45908 q 0,0.4703 0.0871,0.74899 0.0871,0.27869 0.26128,0.43546 0.17418,0.13934 0.43545,0.17418 0.26128,0.0523 0.60964,0.0523 0.2787,0 0.41804,-0.0174 v 1.51539 q -0.0522,0.0174 -0.20902,0.0348 -0.13934,0.0174 -0.40062,0.0174 -0.59222,0 -1.09735,-0.13934 -0.52255,-0.15677 -0.92317,-0.48772 -0.3832,-0.34836 -0.60964,-0.90575 -0.20902,-0.55738 -0.20902,-1.39346 v -4.49392 h -1.35863 v -1.46314 h 1.35863 v -2.69984 z"
           id="path130248" />
      </g>
    </g>
  </g>
</svg>
