<?xml version="1.0" encoding="UTF-8" standalone="no"?>
<!-- Created with Inkscape (http://www.inkscape.org/) -->

<svg
   width="171.0446"
   height="51.075775"
   viewBox="0 0 45.25555 13.513799"
   version="1.1"
   id="svg5"
   inkscape:version="1.1.2 (0a00cf5339, 2022-02-04)"
   sodipodi:docname="befluent.svg"
   xmlns:inkscape="http://www.inkscape.org/namespaces/inkscape"
   xmlns:sodipodi="http://sodipodi.sourceforge.net/DTD/sodipodi-0.dtd"
   xmlns="http://www.w3.org/2000/svg"
   xmlns:svg="http://www.w3.org/2000/svg">
  <sodipodi:namedview
     id="namedview7"
     pagecolor="#ffffff"
     bordercolor="#666666"
     borderopacity="1.0"
     inkscape:pageshadow="2"
     inkscape:pageopacity="0.0"
     inkscape:pagecheckerboard="true"
     inkscape:document-units="px"
     showgrid="false"
     showborder="true"
     units="px"
     inkscape:zoom="1"
     inkscape:cx="194"
     inkscape:cy="-9"
     inkscape:window-width="1366"
     inkscape:window-height="699"
     inkscape:window-x="0"
     inkscape:window-y="0"
     inkscape:window-maximized="1"
     inkscape:current-layer="layer1"
     fit-margin-top="0"
     fit-margin-left="0"
     fit-margin-right="0"
     fit-margin-bottom="0" />
  <defs
     id="defs2" />
  <g
     inkscape:label="Layer 1"
     inkscape:groupmode="layer"
     id="layer1"
     transform="translate(178.18119,67.23676)">
    <g
       id="g176590">
      <g
         aria-label="befluent"
         id="text156572"
         style="font-size:10.5985px;line-height:1.15;font-family:Parquetipo;-inkscape-font-specification:Parquetipo;stroke-width:0.264963">
        <path
           d="m -175.46797,-59.075915 c 1.62157,0 2.96758,-0.455736 2.96758,-2.130299 v -1.250623 c 0,-1.314214 -0.78429,-2.130298 -2.22569,-2.130298 h -1.399 l -0.54052,0.56172 h -0.12718 v -3.10536 l -1.38841,0.169576 v 7.599124 c 0.79489,0.158978 1.82294,0.28616 2.71322,0.28616 z m -1.19763,-1.335411 v -2.077306 c 0,-0.466334 0.25436,-0.763092 0.6783,-0.763092 h 1.21883 c 0.49813,0 0.75249,0.296758 0.75249,0.763092 v 1.314214 c 0,0.466334 -0.25436,0.763092 -0.75249,0.763092 z"
           id="path176508" />
        <path
           d="m -168.75914,-59.075915 c 0.91147,0 1.81234,-0.04239 2.66022,-0.317955 l -0.23316,-1.05985 -0.36035,-0.116584 c -0.43454,0.137781 -1.10225,0.254364 -1.71696,0.254364 -0.77369,0 -1.45199,-0.190773 -1.45199,-0.805486 v -0.08479 h 2.01371 c 1.51559,0 2.04551,-0.529925 2.04551,-1.165835 v -0.63591 c 0,-1.165835 -1.00686,-1.579176 -2.36346,-1.579176 h -0.77369 c -1.65337,0 -2.43766,0.816084 -2.43766,2.130298 v 1.144638 c 0,1.653366 1.15524,2.236284 2.61783,2.236284 z m -1.10224,-3.126558 v -0.21197 c 0,-0.360349 0.25436,-0.869077 0.6677,-0.869077 h 1.19763 c 0.38155,0 0.7101,0.09539 0.7101,0.349751 v 0.275561 c 0,0.42394 -0.32855,0.455735 -0.7101,0.455735 z"
           id="path176510" />
        <path
           d="m -164.06401,-59.1819 h 1.51559 v -4.069824 h 1.81234 v -1.229426 h -1.81234 v -0.657107 c 0,-0.561721 0.37095,-0.794888 0.89027,-0.794888 0.42394,0 0.59352,0.0106 1.04925,0.105985 l 0.31796,-1.229426 c -0.51933,-0.13778 -0.86908,-0.180174 -1.4096,-0.180174 -1.33541,0 -2.36347,0.699501 -2.36347,2.236283 v 0.519327 h -0.95386 v 0.975062 l 0.24376,0.254364 h 0.7101 z"
           id="path176512" />
        <path
           d="m -159.75042,-59.1819 h 1.51558 v -7.948875 l -1.51558,0.21197 z"
           id="path176514" />
        <path
           d="m -151.5154,-59.1819 v -5.29925 h -1.51558 v 3.200747 l -0.0106,0.869077 h -1.57918 c -0.49813,0 -0.74189,-0.402743 -0.74189,-0.869077 v -3.200747 h -1.51559 v 3.274936 c 0,1.314214 0.66771,2.130299 2.1197,2.130299 0.58292,0 1.31422,-0.105985 1.31422,-0.105985 l 0.40274,-0.466334 h 0.13778 v 0.466334 z"
           id="path176516" />
        <path
           d="m -147.60455,-59.075915 c 0.91147,0 1.81234,-0.04239 2.66022,-0.317955 l -0.23316,-1.05985 -0.36035,-0.116584 c -0.43454,0.137781 -1.10225,0.254364 -1.71696,0.254364 -0.77369,0 -1.45199,-0.190773 -1.45199,-0.805486 v -0.08479 h 2.01371 c 1.51559,0 2.04551,-0.529925 2.04551,-1.165835 v -0.63591 c 0,-1.165835 -1.00686,-1.579176 -2.36346,-1.579176 h -0.77369 c -1.65337,0 -2.43766,0.816084 -2.43766,2.130298 v 1.144638 c 0,1.653366 1.15524,2.236284 2.61783,2.236284 z m -1.10224,-3.126558 v -0.21197 c 0,-0.360349 0.25436,-0.869077 0.6677,-0.869077 h 1.19763 c 0.38155,0 0.7101,0.09539 0.7101,0.349751 v 0.275561 c 0,0.42394 -0.32855,0.455735 -0.7101,0.455735 z"
           id="path176518" />
        <path
           d="m -139.84645,-64.587135 c -0.55112,0 -1.12344,0.04239 -1.63217,0.105985 l -0.40274,0.466334 h -0.13778 v -0.466334 h -1.38841 v 5.29925 h 1.51559 v -3.094762 c 0,-0.572319 0.14838,-0.975062 0.64651,-0.975062 h 1.26122 c 0.49813,0 0.74189,0.402743 0.74189,0.869077 v 3.200747 h 1.51559 v -3.274937 c 0,-1.314214 -0.66771,-2.130298 -2.1197,-2.130298 z"
           id="path176520" />
        <path
           d="m -135.98861,-61.206214 c 0,1.748753 0.85848,2.130299 1.96072,2.130299 0.41334,0 0.76309,-0.04239 1.10224,-0.137781 l -0.11658,-1.240024 c -0.28616,0.04239 -0.51933,0.06359 -0.7101,0.06359 -0.51932,0 -0.7207,-0.190773 -0.7207,-0.879676 v -1.981919 h 1.4308 l 0.053,-1.229426 h -1.48379 v -1.377805 l -1.51558,0.21197 v 1.165835 h -0.84788 v 0.932668 l 0.26496,0.296758 h 0.58292 z"
           id="path176522" />
      </g>
      <g
         aria-label="learn swahili"
         id="text170512"
         style="font-size:5.06864px;line-height:1.15;font-family:Parquetipo;-inkscape-font-specification:Parquetipo;stroke-width:0.126716">
        <path
           d="m -164.91377,-53.773651 h 0.72482 v -3.80148 l -0.72482,0.101373 z"
           id="path176525" />
        <path
           d="m -162.30849,-53.722965 c 0.4359,0 0.86674,-0.02027 1.27223,-0.152059 l -0.11151,-0.506864 -0.17233,-0.05576 c -0.20782,0.06589 -0.52714,0.121647 -0.82112,0.121647 -0.37001,0 -0.69441,-0.09124 -0.69441,-0.385216 v -0.04055 h 0.96304 c 0.72482,0 0.97825,-0.253432 0.97825,-0.557551 v -0.304118 c 0,-0.557551 -0.48152,-0.755228 -1.13031,-0.755228 h -0.37001 c -0.7907,0 -1.16578,0.390286 -1.16578,1.018797 v 0.547413 c 0,0.790708 0.55248,1.069483 1.25195,1.069483 z m -0.52714,-1.495249 v -0.101372 c 0,-0.172334 0.12165,-0.415629 0.31933,-0.415629 h 0.57275 c 0.18247,0 0.3396,0.04562 0.3396,0.167265 v 0.131785 c 0,0.202745 -0.15713,0.217951 -0.3396,0.217951 z"
           id="path176527" />
        <path
           d="m -159.54608,-53.722965 c 0.44097,0 0.80591,-0.05069 0.80591,-0.05069 l 0.20275,-0.228089 h 0.0659 l 0.0558,0.228089 h 0.55755 v -1.515524 c 0,-0.841394 -0.53728,-1.074551 -1.34826,-1.074551 -0.35988,0 -0.68934,0.04055 -1.10497,0.141922 l 0.10138,0.476452 0.17233,0.07603 c 0.26864,-0.07603 0.49673,-0.101372 0.81098,-0.101372 0.41563,0 0.64372,0.09124 0.64372,0.415628 v 0.06082 h -1.01373 c -0.53727,0 -0.8566,0.288912 -0.8566,0.628511 v 0.207814 c 0,0.456178 0.37508,0.734953 0.90729,0.734953 z m -0.20275,-0.770433 v -0.157128 c 0,-0.11151 0.10644,-0.167265 0.3244,-0.167265 h 0.84139 v 0.152059 c 0,0.202746 -0.12165,0.339599 -0.31932,0.339599 h -0.52207 c -0.21796,0 -0.3244,-0.05575 -0.3244,-0.167265 z"
           id="path176529" />
        <path
           d="m -157.15876,-53.773651 h 0.72482 v -1.4547 c 0,-0.273706 0.071,-0.466315 0.30919,-0.466315 0.1926,0 0.41562,0.01014 0.63358,0.06082 l 0.12671,-0.669061 c -0.18247,-0.03548 -0.36494,-0.05575 -0.52714,-0.05575 h -0.28891 l -0.24329,0.273707 h -0.071 v -0.22302 h -0.66399 z"
           id="path176531" />
        <path
           d="m -153.33701,-56.358658 c -0.26357,0 -0.53727,0.02027 -0.78057,0.05069 l -0.19261,0.22302 h -0.0659 v -0.22302 h -0.66399 v 2.53432 h 0.72482 v -1.480043 c 0,-0.273707 0.071,-0.466315 0.30918,-0.466315 h 0.60317 c 0.23823,0 0.35481,0.192608 0.35481,0.415629 v 1.530729 h 0.72481 v -1.56621 c 0,-0.628511 -0.31932,-1.018797 -1.01373,-1.018797 z"
           id="path176533" />
        <path
           d="m -149.1706,-53.722965 c 0.67413,0 1.00359,-0.172333 1.00359,-0.653854 v -0.390286 c 0,-0.623442 -1.59155,-0.491658 -1.59155,-0.734952 v -0.101373 c 0,-0.0811 0.10137,-0.131785 0.21795,-0.131785 0.36494,0 0.73495,0.04055 1.09989,0.07603 l 0.15206,-0.136854 v -0.486589 c -0.52207,-0.03041 -0.71468,-0.07603 -1.23168,-0.07603 -0.53727,0 -0.9377,0.202746 -0.9377,0.643718 v 0.380148 c 0,0.658923 1.58649,0.527138 1.58649,0.740021 v 0.131785 c 0,0.0963 -0.0862,0.121647 -0.21288,0.121647 -0.39029,0 -0.86167,-0.05069 -1.25703,-0.0963 l -0.12671,0.136853 v 0.466315 c 0.40549,0.06082 0.7755,0.11151 1.29757,0.11151 z"
           id="path176535" />
        <path
           d="m -147.07219,-53.773651 h 1.04414 l 0.33453,-1.880466 h 0.076 l 0.31426,1.880466 h 1.05427 l 0.71468,-2.392398 -0.071,-0.141922 h -0.64879 l -0.0557,0.238226 -0.40042,1.652377 h -0.0862 l -0.2433,-1.890603 h -1.16071 l -0.3244,1.890603 h -0.0862 l -0.39536,-1.890603 h -0.72988 l -0.071,0.141922 z"
           id="path176537" />
        <path
           d="m -142.34315,-53.722965 c 0.44097,0 0.80591,-0.05069 0.80591,-0.05069 l 0.20275,-0.228089 h 0.0659 l 0.0558,0.228089 h 0.55755 v -1.515524 c 0,-0.841394 -0.53728,-1.074551 -1.34826,-1.074551 -0.35987,0 -0.68934,0.04055 -1.10496,0.141922 l 0.10137,0.476452 0.17233,0.07603 c 0.26864,-0.07603 0.49673,-0.101372 0.81098,-0.101372 0.41563,0 0.64372,0.09124 0.64372,0.415628 v 0.06082 h -1.01373 c -0.53727,0 -0.8566,0.288912 -0.8566,0.628511 v 0.207814 c 0,0.456178 0.37508,0.734953 0.90729,0.734953 z m -0.20275,-0.770433 v -0.157128 c 0,-0.11151 0.10645,-0.167265 0.3244,-0.167265 h 0.84139 v 0.152059 c 0,0.202746 -0.12165,0.339599 -0.31932,0.339599 h -0.52207 c -0.21795,0 -0.3244,-0.05575 -0.3244,-0.167265 z"
           id="path176539" />
        <path
           d="m -138.25276,-56.358658 c -0.26357,0 -0.62345,0.03548 -0.78057,0.05069 l -0.19261,0.22302 h -0.0659 v -1.49018 l -0.664,0.101373 v 3.700107 h 0.72482 v -1.480043 c 0,-0.273707 0.071,-0.466315 0.30919,-0.466315 h 0.60317 c 0.23822,0 0.3548,0.192608 0.3548,0.415629 v 1.530729 h 0.72482 v -1.56621 c 0,-0.628511 -0.31933,-1.018797 -1.01373,-1.018797 z"
           id="path176541" />
        <path
           d="m -136.60546,-53.773651 h 0.72481 v -2.53432 l -0.73495,0.04055 z m -0.0152,-3.172969 c 0.10644,0.106442 0.2585,0.157128 0.42577,0.157128 0.1774,0 0.38015,-0.04055 0.38015,-0.29905 v -0.349736 c -0.0963,-0.106441 -0.27371,-0.146991 -0.44098,-0.146991 -0.1774,0 -0.36494,0.03548 -0.36494,0.293982 z"
           id="path176543" />
        <path
           d="m -135.13556,-53.773651 h 0.72481 v -3.80148 l -0.72481,0.101373 z"
           id="path176545" />
        <path
           d="m -133.71635,-53.773651 h 0.72482 v -2.53432 l -0.73495,0.04055 z m -0.0152,-3.172969 c 0.10644,0.106442 0.2585,0.157128 0.42576,0.157128 0.1774,0 0.38015,-0.04055 0.38015,-0.29905 v -0.349736 c -0.0963,-0.106441 -0.27371,-0.146991 -0.44097,-0.146991 -0.1774,0 -0.36494,0.03548 -0.36494,0.293982 z"
           id="path176547" />
      </g>
    </g>
  </g>
</svg>
